Coordinates
version=1
nRows=19
nColumns=33
inDegrees=yes

Units are S.I. units (second, meters, Newtons, ...)
Angles are in degrees.

endheader
time	ground_thorax_rot_x	ground_thorax_rot_y	ground_thorax_rot_z	ground_thorax_tx	ground_thorax_ty	ground_thorax_tz	clav_prot_r	clav_elev_r	scapula_abduction_r	scapula_elevation_r	scapula_upward_rot_r	scapula_winging_r	shoulder_elv_r	plane_of_elev_r	axial_rot_r	elbow_flexion_r	pro_sup_r	wrist_flex_r	wrist_dev_r	clav_prot_l	clav_elev_l	scapula_abduction_l	scapula_elevation_l	scapula_upward_rot_l	scapula_winging_l	shoulder_elv_l	plane_of_elev_l	axial_rot_l	elbow_flexion_l	pro_sup_l	wrist_flex_l	wrist_dev_l	
3.2800	37.453474	14.241254	18.805854	-210.832551	826.555400	6.051636	14.976127	37.667355	37.579169	45.000000	-45.000000	3152.377031	-107.986802	147.602065	-125.416437	1465.259714	168.894369	11.485377	5.157398	10.481606	-45.000000	-37.349908	45.000000	-44.983662	-2059.639214	437.845435	17.674704	-59.205168	1102.903345	188.542548	-0.342994	-8.883339	
3.2900	37.435951	14.565091	19.028805	-207.146366	826.083944	6.142149	15.051857	37.696402	37.753228	45.000000	-45.000000	3152.460005	-108.021399	147.533360	-125.381255	1465.188919	170.972134	11.348282	5.105239	10.493500	-45.000000	-37.416570	45.000000	-44.970158	-2059.838076	437.816511	17.753770	-59.111964	1102.901528	190.262273	-0.306712	-8.676186	
3.3000	37.408746	14.913654	19.298850	-203.261358	825.454470	6.230968	15.118984	37.722266	37.918795	45.000000	-45.000000	3152.554575	-108.074025	147.476063	-125.282360	1465.096793	173.119549	11.207504	5.050566	10.506273	-45.000000	-37.483603	45.000000	-44.948152	-2060.049380	437.775630	17.825142	-59.046397	1102.880833	192.058312	-0.282899	-8.456103	
3.3100	37.370719	15.282090	19.620977	-199.176802	824.649517	6.317997	15.196464	37.751688	38.082303	45.000000	-45.000000	3152.666768	-108.143498	147.436124	-125.114277	1464.978418	175.335363	11.062814	4.995694	10.500489	-45.000000	-37.542895	45.000000	-44.902636	-2060.276231	437.722188	17.876948	-59.005818	1102.839937	193.948140	-0.272787	-8.220317	
3.3200	37.319856	15.672646	19.996567	-194.893377	823.654972	6.402255	15.264398	37.768964	38.235904	45.000000	-45.000000	3152.799954	-108.230250	147.414936	-124.872876	1464.830451	177.642894	10.913461	4.945845	10.477155	-45.000000	-37.594320	45.000000	-44.838125	-2060.517374	437.651748	17.912075	-58.996046	1102.772258	195.968812	-0.280971	-7.963344	
3.3300	37.253467	16.079132	20.423659	-190.413774	822.460748	6.481657	15.346050	37.794130	38.381509	45.000000	-45.000000	3152.954028	-108.336919	147.408246	-124.566072	1464.652413	180.023060	10.759657	4.894771	10.438124	-45.000000	-37.641722	45.000000	-44.722138	-2060.771789	437.563861	17.915546	-59.038484	1102.677102	198.113047	-0.295977	-7.690401	
3.3400	37.167621	16.505591	20.901307	-185.742838	821.061090	6.553125	15.420440	37.819161	38.506353	45.000000	-45.000000	3153.125861	-108.466132	147.408528	-124.209298	1464.448099	182.446524	10.602609	4.837643	10.404696	-45.000000	-37.693298	45.000000	-44.562650	-2061.034688	437.455105	17.894281	-59.149156	1102.550552	200.365529	-0.314822	-7.405337	
3.3500	37.058836	16.950736	21.428835	-180.888534	819.455389	6.613239	15.500130	37.859194	38.607149	45.000000	-45.000000	3153.312104	-108.618771	147.409509	-123.815556	1464.223931	184.856343	10.444924	4.766353	10.387508	-45.000000	-37.755637	45.000000	-44.356766	-2061.305900	437.324117	17.841849	-59.332055	1102.395537	202.686454	-0.327629	-7.117336	
3.3600	36.924347	17.421847	22.010546	-175.861733	817.648040	6.658654	15.559383	37.895494	38.670843	45.000000	-45.000000	3153.509265	-108.791307	147.406515	-123.383391	1463.983429	187.248791	10.289788	4.683269	10.394478	-45.000000	-37.825119	45.000000	-44.155045	-2061.586093	437.167047	17.776518	-59.568962	1102.207675	205.087232	-0.336667	-6.829028	
3.3700	36.760567	17.919309	22.652567	-170.676313	815.648723	6.686753	15.613015	37.941060	38.704426	45.000000	-45.000000	3153.714949	-108.986432	147.405420	-122.912361	1463.728667	189.630879	10.141985	4.590396	10.425466	-45.000000	-37.896028	45.000000	-43.974705	-2061.876664	436.985797	17.697559	-59.836501	1101.985179	207.581821	-0.330184	-6.550429	
3.3800	36.563251	18.452487	23.365789	-165.348466	813.471444	6.695742	15.634839	37.975457	38.694066	45.000000	-45.000000	3153.929067	-109.196845	147.404793	-122.398996	1463.454256	192.106871	10.007541	4.498028	10.482062	-45.000000	-37.958376	45.000000	-43.867501	-2062.176113	436.778368	17.625427	-60.102400	1101.716811	210.268126	-0.305311	-6.289815	
3.3900	36.332425	19.009403	24.150806	-159.896622	811.134112	6.684827	15.654306	38.009068	38.665771	45.000000	-45.000000	3154.155997	-109.427118	147.425767	-121.850264	1463.151054	194.867635	9.893617	4.425879	10.533411	-45.000000	-37.994600	45.000000	-43.835955	-2062.488906	436.548159	17.556711	-60.306143	1101.391808	213.321284	-0.244140	-6.058228	
3.4000	36.066882	19.585760	25.003903	-154.339812	808.656698	6.653814	15.661820	38.029989	38.611877	45.000000	-45.000000	3154.398271	-109.671287	147.464100	-121.320581	1462.795581	198.327569	9.815193	4.399106	10.572481	-45.000000	-38.000351	45.000000	-43.890652	-2062.813676	436.287687	17.508866	-60.373520	1100.980060	217.112616	-0.115214	-5.884742	
3.4100	35.767369	20.174569	25.919317	-148.698549	806.061492	6.603360	15.663370	38.047774	38.544976	45.000000	-45.000000	3154.653445	-109.934225	147.526288	-120.901739	1462.360230	202.932608	9.791284	4.441425	10.606821	-45.000000	-37.978302	45.000000	-44.005272	-2063.143042	435.984716	17.489157	-60.217262	1100.455430	222.035572	0.128473	-5.810607	
3.4200	35.433008	20.775276	26.893917	-142.994600	803.372478	6.534974	15.647496	38.052596	38.450701	45.000000	-45.000000	3154.926528	-110.198757	147.598872	-120.866768	1461.760764	210.025710	9.888142	4.627273	10.639764	-45.000000	-37.933843	45.000000	-44.172446	-2063.471626	435.607014	17.548142	-59.520296	1099.724007	229.301128	0.602593	-5.958328	
3.4300	35.055669	21.397991	27.935311	-137.252041	800.616124	6.451148	15.563043	38.026568	38.326742	45.000000	-45.000000	3155.212755	-110.463575	147.683565	-121.398858	1460.954568	220.350407	10.142873	5.004577	10.712749	-45.000000	-37.885479	45.000000	-44.368634	-2063.774543	435.130181	17.719780	-58.121956	1098.741276	239.555859	1.366438	-6.408101	
3.4400	34.646977	22.021411	29.009420	-131.496207	797.820676	6.354917	15.446597	37.985512	38.161300	45.000000	-45.000000	3155.515585	-110.673944	147.710128	-123.674885	1459.592195	239.689587	10.862080	5.897829	10.801274	-45.000000	-37.836425	45.000000	-44.565807	-2064.070120	434.421359	18.226953	-54.531761	1097.123284	257.924589	2.909365	-7.725502	
3.4500	34.199469	22.659369	30.124535	-125.754297	795.016504	6.249503	15.270870	37.923553	37.937164	45.000000	-45.000000	3155.827518	-110.839752	147.676783	-127.393732	1457.794724	265.983455	11.935394	7.236773	10.942218	-45.000000	-37.801692	45.000000	-44.740345	-2064.328957	433.511760	19.004175	-49.265937	1095.022226	282.490692	5.047157	-9.755569	
3.4600	33.731006	23.284033	31.251906	-120.055271	792.234846	6.137582	15.138016	37.882611	37.678858	45.000000	-45.000000	3156.147028	-110.971167	147.592286	-132.259331	1455.676245	297.421668	13.284270	8.936105	11.047185	-45.000000	-37.755685	45.000000	-44.875336	-2064.581010	432.453422	19.968805	-42.647815	1092.565530	311.566188	7.626237	-12.343439	
